<mxfile host="app.diagrams.net" modified="2023-12-13T20:47:27.686Z" agent="Mozilla/5.0 (Windows NT 10.0; Win64; x64) AppleWebKit/537.36 (KHTML, like Gecko) Chrome/118.0.5993.732 YaBrowser/23.11.1.732 Yowser/2.5 Safari/537.36" etag="x9p-lqCNrOXDJXOev7t_" version="22.1.8" type="device">
  <diagram name="Страница — 1" id="JzbT3yrNelol7UxY1adC">
    <mxGraphModel dx="1834" dy="1191" grid="0" gridSize="10" guides="1" tooltips="1" connect="1" arrows="1" fold="1" page="0" pageScale="1" pageWidth="827" pageHeight="1169" math="0" shadow="0">
      <root>
        <mxCell id="0" />
        <mxCell id="1" parent="0" />
        <mxCell id="wQINdJE-mP2ufMY2KP_g-28" style="edgeStyle=orthogonalEdgeStyle;rounded=0;orthogonalLoop=1;jettySize=auto;html=1;" parent="1" source="wQINdJE-mP2ufMY2KP_g-1" target="wQINdJE-mP2ufMY2KP_g-26" edge="1">
          <mxGeometry relative="1" as="geometry">
            <mxPoint x="425" y="495" as="targetPoint" />
          </mxGeometry>
        </mxCell>
        <mxCell id="wQINdJE-mP2ufMY2KP_g-1" value="&#xa;&lt;span style=&quot;color: rgb(0, 0, 0); font-family: Roboto, -apple-system, BlinkMacSystemFont, &amp;quot;Apple Color Emoji&amp;quot;, &amp;quot;Segoe UI&amp;quot;, Oxygen, Ubuntu, Cantarell, &amp;quot;Fira Sans&amp;quot;, &amp;quot;Droid Sans&amp;quot;, &amp;quot;Helvetica Neue&amp;quot;, sans-serif; font-size: 16px; font-style: normal; font-variant-ligatures: normal; font-variant-caps: normal; font-weight: 400; letter-spacing: normal; orphans: 2; text-align: start; text-indent: 0px; text-transform: none; widows: 2; word-spacing: 0px; -webkit-text-stroke-width: 0px; background-color: rgb(255, 255, 255); text-decoration-thickness: initial; text-decoration-style: initial; text-decoration-color: initial; float: none; display: inline !important;&quot;&gt;Администратор&lt;/span&gt;&#xa;&#xa;" style="shape=umlActor;verticalLabelPosition=bottom;verticalAlign=top;html=1;outlineConnect=0;fillColor=#dae8fc;strokeColor=#6c8ebf;" parent="1" vertex="1">
          <mxGeometry x="397" y="638" width="56" height="95" as="geometry" />
        </mxCell>
        <mxCell id="wQINdJE-mP2ufMY2KP_g-2" value="Отвечает за обновление базы данных театра" style="ellipse;whiteSpace=wrap;html=1;fillColor=#dae8fc;strokeColor=#6c8ebf;" parent="1" vertex="1">
          <mxGeometry x="161" y="643" width="170" height="85" as="geometry" />
        </mxCell>
        <mxCell id="wQINdJE-mP2ufMY2KP_g-3" value="Резервное копирование данных" style="ellipse;whiteSpace=wrap;html=1;fillColor=#dae8fc;strokeColor=#6c8ebf;" parent="1" vertex="1">
          <mxGeometry x="-45" y="695" width="140" height="80" as="geometry" />
        </mxCell>
        <mxCell id="wQINdJE-mP2ufMY2KP_g-4" value="Обеспечение безопасности базы данных" style="ellipse;whiteSpace=wrap;html=1;fillColor=#dae8fc;strokeColor=#6c8ebf;" parent="1" vertex="1">
          <mxGeometry x="524" y="723" width="125" height="83" as="geometry" />
        </mxCell>
        <mxCell id="wQINdJE-mP2ufMY2KP_g-5" value="Оптимизация программного обеспечения" style="ellipse;whiteSpace=wrap;html=1;fillColor=#dae8fc;strokeColor=#6c8ebf;" parent="1" vertex="1">
          <mxGeometry x="524" y="614" width="170" height="90" as="geometry" />
        </mxCell>
        <mxCell id="wQINdJE-mP2ufMY2KP_g-7" value="Контролирует доступ пользователей к данным" style="ellipse;whiteSpace=wrap;html=1;fillColor=#dae8fc;strokeColor=#6c8ebf;" parent="1" vertex="1">
          <mxGeometry x="728" y="786" width="190" height="110" as="geometry" />
        </mxCell>
        <mxCell id="wQINdJE-mP2ufMY2KP_g-11" value="" style="endArrow=classic;html=1;rounded=0;exitX=0.5;exitY=0.5;exitDx=0;exitDy=0;exitPerimeter=0;" parent="1" source="wQINdJE-mP2ufMY2KP_g-1" target="wQINdJE-mP2ufMY2KP_g-4" edge="1">
          <mxGeometry width="50" height="50" relative="1" as="geometry">
            <mxPoint x="439" y="689" as="sourcePoint" />
            <mxPoint x="569" y="719" as="targetPoint" />
          </mxGeometry>
        </mxCell>
        <mxCell id="wQINdJE-mP2ufMY2KP_g-12" value="" style="endArrow=classic;html=1;rounded=0;exitX=0.5;exitY=0.5;exitDx=0;exitDy=0;exitPerimeter=0;" parent="1" source="wQINdJE-mP2ufMY2KP_g-1" target="wQINdJE-mP2ufMY2KP_g-5" edge="1">
          <mxGeometry width="50" height="50" relative="1" as="geometry">
            <mxPoint x="438" y="684.0500000000001" as="sourcePoint" />
            <mxPoint x="621.9443127655918" y="645.0025581668913" as="targetPoint" />
          </mxGeometry>
        </mxCell>
        <mxCell id="wQINdJE-mP2ufMY2KP_g-13" value="" style="endArrow=classic;html=1;rounded=0;entryX=1;entryY=0.5;entryDx=0;entryDy=0;exitX=0.5;exitY=0.5;exitDx=0;exitDy=0;exitPerimeter=0;" parent="1" source="wQINdJE-mP2ufMY2KP_g-1" target="wQINdJE-mP2ufMY2KP_g-2" edge="1">
          <mxGeometry width="50" height="50" relative="1" as="geometry">
            <mxPoint x="387" y="681" as="sourcePoint" />
            <mxPoint x="437" y="685" as="targetPoint" />
          </mxGeometry>
        </mxCell>
        <mxCell id="wQINdJE-mP2ufMY2KP_g-17" value="" style="endArrow=classic;html=1;rounded=0;dashed=1;" parent="1" source="wQINdJE-mP2ufMY2KP_g-2" target="wQINdJE-mP2ufMY2KP_g-3" edge="1">
          <mxGeometry width="50" height="50" relative="1" as="geometry">
            <mxPoint x="387" y="735" as="sourcePoint" />
            <mxPoint x="437" y="685" as="targetPoint" />
          </mxGeometry>
        </mxCell>
        <mxCell id="wQINdJE-mP2ufMY2KP_g-19" value="" style="endArrow=classic;html=1;rounded=0;dashed=1;" parent="1" source="wQINdJE-mP2ufMY2KP_g-4" target="wQINdJE-mP2ufMY2KP_g-7" edge="1">
          <mxGeometry width="50" height="50" relative="1" as="geometry">
            <mxPoint x="387" y="735" as="sourcePoint" />
            <mxPoint x="437" y="685" as="targetPoint" />
          </mxGeometry>
        </mxCell>
        <mxCell id="wQINdJE-mP2ufMY2KP_g-20" value="&amp;lt;&amp;lt;Include&amp;gt;&amp;gt;" style="text;html=1;align=center;verticalAlign=middle;resizable=0;points=[];autosize=1;strokeColor=none;fillColor=none;rotation=-15;" parent="1" vertex="1">
          <mxGeometry x="80" y="688" width="85" height="26" as="geometry" />
        </mxCell>
        <mxCell id="wQINdJE-mP2ufMY2KP_g-21" value="&amp;lt;&amp;lt;Include&amp;gt;&amp;gt;" style="text;html=1;align=center;verticalAlign=middle;resizable=0;points=[];autosize=1;strokeColor=none;fillColor=none;rotation=15;" parent="1" vertex="1">
          <mxGeometry x="654" y="780" width="85" height="26" as="geometry" />
        </mxCell>
        <mxCell id="wQINdJE-mP2ufMY2KP_g-59" style="edgeStyle=orthogonalEdgeStyle;rounded=0;orthogonalLoop=1;jettySize=auto;html=1;" parent="1" source="wQINdJE-mP2ufMY2KP_g-26" target="wQINdJE-mP2ufMY2KP_g-51" edge="1">
          <mxGeometry relative="1" as="geometry">
            <mxPoint x="425" y="239" as="targetPoint" />
          </mxGeometry>
        </mxCell>
        <mxCell id="wQINdJE-mP2ufMY2KP_g-26" value="&lt;font style=&quot;font-size: 18px;&quot;&gt;Режиссер&lt;/font&gt;" style="shape=umlActor;verticalLabelPosition=bottom;verticalAlign=top;html=1;outlineConnect=0;fillColor=#dae8fc;strokeColor=#6c8ebf;" parent="1" vertex="1">
          <mxGeometry x="397" y="358" width="56" height="95" as="geometry" />
        </mxCell>
        <mxCell id="wQINdJE-mP2ufMY2KP_g-29" value="Осуществление художественного задумки представлений" style="ellipse;whiteSpace=wrap;html=1;fillColor=#dae8fc;strokeColor=#6c8ebf;" parent="1" vertex="1">
          <mxGeometry x="563" y="356" width="155" height="99" as="geometry" />
        </mxCell>
        <mxCell id="wQINdJE-mP2ufMY2KP_g-30" value="Обеспечивает коммуникацию между различными участниками" style="ellipse;whiteSpace=wrap;html=1;fillColor=#dae8fc;strokeColor=#6c8ebf;" parent="1" vertex="1">
          <mxGeometry x="71" y="403" width="229" height="111" as="geometry" />
        </mxCell>
        <mxCell id="wQINdJE-mP2ufMY2KP_g-32" value="Информация о пьесах, актерах, репетиционном графике, реквизите" style="ellipse;whiteSpace=wrap;html=1;fillColor=#dae8fc;strokeColor=#6c8ebf;" parent="1" vertex="1">
          <mxGeometry x="92" y="251" width="215" height="124" as="geometry" />
        </mxCell>
        <mxCell id="wQINdJE-mP2ufMY2KP_g-33" value="Художники" style="ellipse;whiteSpace=wrap;html=1;fillColor=#dae8fc;strokeColor=#6c8ebf;" parent="1" vertex="1">
          <mxGeometry x="5" y="565" width="120" height="80" as="geometry" />
        </mxCell>
        <mxCell id="wQINdJE-mP2ufMY2KP_g-34" value="Актеры" style="ellipse;whiteSpace=wrap;html=1;fillColor=#dae8fc;strokeColor=#6c8ebf;" parent="1" vertex="1">
          <mxGeometry x="-138" y="500" width="120" height="80" as="geometry" />
        </mxCell>
        <mxCell id="wQINdJE-mP2ufMY2KP_g-35" value="Планирования и отслеживания" style="ellipse;whiteSpace=wrap;html=1;fillColor=#dae8fc;strokeColor=#6c8ebf;" parent="1" vertex="1">
          <mxGeometry x="813" y="364" width="133" height="83" as="geometry" />
        </mxCell>
        <mxCell id="wQINdJE-mP2ufMY2KP_g-36" value="Звукорежиссеры" style="ellipse;whiteSpace=wrap;html=1;fillColor=#dae8fc;strokeColor=#6c8ebf;" parent="1" vertex="1">
          <mxGeometry x="-138" y="373" width="120" height="80" as="geometry" />
        </mxCell>
        <mxCell id="wQINdJE-mP2ufMY2KP_g-37" value="" style="endArrow=classic;html=1;rounded=0;entryX=0.93;entryY=0.75;entryDx=0;entryDy=0;entryPerimeter=0;exitX=0.5;exitY=0.5;exitDx=0;exitDy=0;exitPerimeter=0;" parent="1" source="wQINdJE-mP2ufMY2KP_g-26" target="wQINdJE-mP2ufMY2KP_g-32" edge="1">
          <mxGeometry width="50" height="50" relative="1" as="geometry">
            <mxPoint x="389" y="376" as="sourcePoint" />
            <mxPoint x="437" y="385" as="targetPoint" />
          </mxGeometry>
        </mxCell>
        <mxCell id="wQINdJE-mP2ufMY2KP_g-38" value="" style="endArrow=classic;html=1;rounded=0;exitX=0.5;exitY=0.5;exitDx=0;exitDy=0;exitPerimeter=0;" parent="1" source="wQINdJE-mP2ufMY2KP_g-26" target="wQINdJE-mP2ufMY2KP_g-30" edge="1">
          <mxGeometry width="50" height="50" relative="1" as="geometry">
            <mxPoint x="387" y="435" as="sourcePoint" />
            <mxPoint x="437" y="385" as="targetPoint" />
          </mxGeometry>
        </mxCell>
        <mxCell id="wQINdJE-mP2ufMY2KP_g-39" value="" style="endArrow=classic;html=1;rounded=0;exitX=0.5;exitY=0.5;exitDx=0;exitDy=0;exitPerimeter=0;" parent="1" source="wQINdJE-mP2ufMY2KP_g-26" target="wQINdJE-mP2ufMY2KP_g-29" edge="1">
          <mxGeometry width="50" height="50" relative="1" as="geometry">
            <mxPoint x="453" y="406" as="sourcePoint" />
            <mxPoint x="437" y="385" as="targetPoint" />
          </mxGeometry>
        </mxCell>
        <mxCell id="wQINdJE-mP2ufMY2KP_g-41" value="" style="endArrow=classic;html=1;rounded=0;dashed=1;" parent="1" source="wQINdJE-mP2ufMY2KP_g-29" target="wQINdJE-mP2ufMY2KP_g-35" edge="1">
          <mxGeometry width="50" height="50" relative="1" as="geometry">
            <mxPoint x="387" y="435" as="sourcePoint" />
            <mxPoint x="437" y="385" as="targetPoint" />
          </mxGeometry>
        </mxCell>
        <mxCell id="wQINdJE-mP2ufMY2KP_g-42" value="" style="endArrow=classic;html=1;rounded=0;dashed=1;" parent="1" source="wQINdJE-mP2ufMY2KP_g-30" target="wQINdJE-mP2ufMY2KP_g-36" edge="1">
          <mxGeometry width="50" height="50" relative="1" as="geometry">
            <mxPoint x="387" y="435" as="sourcePoint" />
            <mxPoint x="437" y="385" as="targetPoint" />
          </mxGeometry>
        </mxCell>
        <mxCell id="wQINdJE-mP2ufMY2KP_g-43" value="" style="endArrow=classic;html=1;rounded=0;dashed=1;" parent="1" source="wQINdJE-mP2ufMY2KP_g-30" target="wQINdJE-mP2ufMY2KP_g-34" edge="1">
          <mxGeometry width="50" height="50" relative="1" as="geometry">
            <mxPoint x="387" y="435" as="sourcePoint" />
            <mxPoint x="437" y="385" as="targetPoint" />
          </mxGeometry>
        </mxCell>
        <mxCell id="wQINdJE-mP2ufMY2KP_g-44" value="" style="endArrow=classic;html=1;rounded=0;dashed=1;" parent="1" source="wQINdJE-mP2ufMY2KP_g-30" target="wQINdJE-mP2ufMY2KP_g-33" edge="1">
          <mxGeometry width="50" height="50" relative="1" as="geometry">
            <mxPoint x="387" y="435" as="sourcePoint" />
            <mxPoint x="437" y="385" as="targetPoint" />
          </mxGeometry>
        </mxCell>
        <mxCell id="wQINdJE-mP2ufMY2KP_g-45" value="&amp;lt;&amp;lt;Include&amp;gt;&amp;gt;" style="text;html=1;align=center;verticalAlign=middle;resizable=0;points=[];autosize=1;strokeColor=none;fillColor=none;rotation=-15;" parent="1" vertex="1">
          <mxGeometry x="-10" y="483" width="85" height="26" as="geometry" />
        </mxCell>
        <mxCell id="wQINdJE-mP2ufMY2KP_g-47" value="&amp;lt;&amp;lt;Include&amp;gt;&amp;gt;" style="text;html=1;align=center;verticalAlign=middle;resizable=0;points=[];autosize=1;strokeColor=none;fillColor=none;rotation=-50;" parent="1" vertex="1">
          <mxGeometry x="68" y="524" width="85" height="26" as="geometry" />
        </mxCell>
        <mxCell id="wQINdJE-mP2ufMY2KP_g-48" value="&amp;lt;&amp;lt;Include&amp;gt;&amp;gt;" style="text;html=1;align=center;verticalAlign=middle;resizable=0;points=[];autosize=1;strokeColor=none;fillColor=none;rotation=10;" parent="1" vertex="1">
          <mxGeometry x="-5" y="406" width="85" height="26" as="geometry" />
        </mxCell>
        <mxCell id="wQINdJE-mP2ufMY2KP_g-49" value="&amp;lt;&amp;lt;Include&amp;gt;&amp;gt;" style="text;html=1;align=center;verticalAlign=middle;resizable=0;points=[];autosize=1;strokeColor=none;fillColor=none;rotation=0;" parent="1" vertex="1">
          <mxGeometry x="715" y="384" width="85" height="26" as="geometry" />
        </mxCell>
        <mxCell id="wQINdJE-mP2ufMY2KP_g-80" style="edgeStyle=orthogonalEdgeStyle;rounded=0;orthogonalLoop=1;jettySize=auto;html=1;" parent="1" source="wQINdJE-mP2ufMY2KP_g-51" target="wQINdJE-mP2ufMY2KP_g-78" edge="1">
          <mxGeometry relative="1" as="geometry">
            <mxPoint x="425" y="-10" as="targetPoint" />
          </mxGeometry>
        </mxCell>
        <mxCell id="wQINdJE-mP2ufMY2KP_g-51" value="&lt;font style=&quot;font-size: 17px;&quot;&gt;&lt;br&gt;&lt;span style=&quot;color: rgb(0, 0, 0); font-family: Roboto, -apple-system, BlinkMacSystemFont, &amp;quot;Apple Color Emoji&amp;quot;, &amp;quot;Segoe UI&amp;quot;, Oxygen, Ubuntu, Cantarell, &amp;quot;Fira Sans&amp;quot;, &amp;quot;Droid Sans&amp;quot;, &amp;quot;Helvetica Neue&amp;quot;, sans-serif; font-style: normal; font-variant-ligatures: normal; font-variant-caps: normal; font-weight: 400; letter-spacing: normal; orphans: 2; text-align: start; text-indent: 0px; text-transform: none; widows: 2; word-spacing: 0px; -webkit-text-stroke-width: 0px; background-color: rgb(255, 255, 255); text-decoration-thickness: initial; text-decoration-style: initial; text-decoration-color: initial; float: none; display: inline !important;&quot;&gt;Менеджер по продажам&lt;/span&gt;&lt;br&gt;&lt;/font&gt;" style="shape=umlActor;verticalLabelPosition=bottom;verticalAlign=top;html=1;outlineConnect=0;fillColor=#dae8fc;strokeColor=#6c8ebf;" parent="1" vertex="1">
          <mxGeometry x="397" y="91" width="56" height="95" as="geometry" />
        </mxCell>
        <mxCell id="wQINdJE-mP2ufMY2KP_g-52" value="Управление процессом продажи билетов на представления" style="ellipse;whiteSpace=wrap;html=1;fillColor=#dae8fc;strokeColor=#6c8ebf;" parent="1" vertex="1">
          <mxGeometry x="188" y="60" width="165" height="92" as="geometry" />
        </mxCell>
        <mxCell id="wQINdJE-mP2ufMY2KP_g-53" value="Управление ценами на билеты" style="ellipse;whiteSpace=wrap;html=1;fillColor=#dae8fc;strokeColor=#6c8ebf;" parent="1" vertex="1">
          <mxGeometry x="492" y="-16" width="179" height="92" as="geometry" />
        </mxCell>
        <mxCell id="wQINdJE-mP2ufMY2KP_g-54" value="Анализирует поведение покупателей для увеличения продаж" style="ellipse;whiteSpace=wrap;html=1;fillColor=#dae8fc;strokeColor=#6c8ebf;" parent="1" vertex="1">
          <mxGeometry x="-61.5" y="-16" width="188" height="100" as="geometry" />
        </mxCell>
        <mxCell id="wQINdJE-mP2ufMY2KP_g-55" value="Отчеты о продажах" style="ellipse;whiteSpace=wrap;html=1;fillColor=#dae8fc;strokeColor=#6c8ebf;" parent="1" vertex="1">
          <mxGeometry x="-27" y="117" width="156" height="115" as="geometry" />
        </mxCell>
        <mxCell id="wQINdJE-mP2ufMY2KP_g-56" value="Места" style="ellipse;whiteSpace=wrap;html=1;fillColor=#dae8fc;strokeColor=#6c8ebf;" parent="1" vertex="1">
          <mxGeometry y="-183.5" width="117.5" height="64" as="geometry" />
        </mxCell>
        <mxCell id="wQINdJE-mP2ufMY2KP_g-57" value="Отслеживания заполненности зала" style="ellipse;whiteSpace=wrap;html=1;fillColor=#dae8fc;strokeColor=#6c8ebf;" parent="1" vertex="1">
          <mxGeometry x="536" y="128.5" width="165" height="92" as="geometry" />
        </mxCell>
        <mxCell id="wQINdJE-mP2ufMY2KP_g-60" value="" style="endArrow=classic;html=1;rounded=0;exitX=0.5;exitY=0.5;exitDx=0;exitDy=0;exitPerimeter=0;" parent="1" source="wQINdJE-mP2ufMY2KP_g-51" target="wQINdJE-mP2ufMY2KP_g-57" edge="1">
          <mxGeometry width="50" height="50" relative="1" as="geometry">
            <mxPoint x="498" y="160" as="sourcePoint" />
            <mxPoint x="548" y="110" as="targetPoint" />
          </mxGeometry>
        </mxCell>
        <mxCell id="wQINdJE-mP2ufMY2KP_g-61" value="" style="endArrow=classic;html=1;rounded=0;exitX=0.5;exitY=0.5;exitDx=0;exitDy=0;exitPerimeter=0;" parent="1" source="wQINdJE-mP2ufMY2KP_g-51" target="wQINdJE-mP2ufMY2KP_g-53" edge="1">
          <mxGeometry width="50" height="50" relative="1" as="geometry">
            <mxPoint x="461" y="125" as="sourcePoint" />
            <mxPoint x="548" y="110" as="targetPoint" />
          </mxGeometry>
        </mxCell>
        <mxCell id="wQINdJE-mP2ufMY2KP_g-62" value="" style="endArrow=classic;html=1;rounded=0;exitX=0.5;exitY=0.5;exitDx=0;exitDy=0;exitPerimeter=0;" parent="1" source="wQINdJE-mP2ufMY2KP_g-51" target="wQINdJE-mP2ufMY2KP_g-52" edge="1">
          <mxGeometry width="50" height="50" relative="1" as="geometry">
            <mxPoint x="402" y="142" as="sourcePoint" />
            <mxPoint x="548" y="110" as="targetPoint" />
          </mxGeometry>
        </mxCell>
        <mxCell id="wQINdJE-mP2ufMY2KP_g-63" value="" style="endArrow=classic;html=1;rounded=0;dashed=1;" parent="1" source="wQINdJE-mP2ufMY2KP_g-52" target="wQINdJE-mP2ufMY2KP_g-54" edge="1">
          <mxGeometry width="50" height="50" relative="1" as="geometry">
            <mxPoint x="498" y="160" as="sourcePoint" />
            <mxPoint x="548" y="110" as="targetPoint" />
          </mxGeometry>
        </mxCell>
        <mxCell id="wQINdJE-mP2ufMY2KP_g-64" value="" style="endArrow=classic;html=1;rounded=0;dashed=1;" parent="1" source="wQINdJE-mP2ufMY2KP_g-52" target="wQINdJE-mP2ufMY2KP_g-55" edge="1">
          <mxGeometry width="50" height="50" relative="1" as="geometry">
            <mxPoint x="498" y="160" as="sourcePoint" />
            <mxPoint x="548" y="110" as="targetPoint" />
          </mxGeometry>
        </mxCell>
        <mxCell id="wQINdJE-mP2ufMY2KP_g-67" value="Расписание" style="ellipse;whiteSpace=wrap;html=1;fillColor=#dae8fc;strokeColor=#6c8ebf;" parent="1" vertex="1">
          <mxGeometry x="-90.5" y="-119.5" width="138" height="68" as="geometry" />
        </mxCell>
        <mxCell id="wQINdJE-mP2ufMY2KP_g-68" value="Приобретение&amp;nbsp;билетов на представления" style="ellipse;whiteSpace=wrap;html=1;fillColor=#dae8fc;strokeColor=#6c8ebf;" parent="1" vertex="1">
          <mxGeometry x="202" y="-134" width="165" height="92" as="geometry" />
        </mxCell>
        <mxCell id="wQINdJE-mP2ufMY2KP_g-69" value="Комментирует представление" style="ellipse;whiteSpace=wrap;html=1;fillColor=#dae8fc;strokeColor=#6c8ebf;" parent="1" vertex="1">
          <mxGeometry x="516" y="-127.5" width="133" height="76" as="geometry" />
        </mxCell>
        <mxCell id="wQINdJE-mP2ufMY2KP_g-72" value="&amp;lt;&amp;lt;Include&amp;gt;&amp;gt;" style="text;html=1;align=center;verticalAlign=middle;resizable=0;points=[];autosize=1;strokeColor=none;fillColor=none;rotation=15;" parent="1" vertex="1">
          <mxGeometry x="120" y="52" width="85" height="26" as="geometry" />
        </mxCell>
        <mxCell id="wQINdJE-mP2ufMY2KP_g-73" value="&amp;lt;&amp;lt;Include&amp;gt;&amp;gt;" style="text;html=1;align=center;verticalAlign=middle;resizable=0;points=[];autosize=1;strokeColor=none;fillColor=none;rotation=-15;" parent="1" vertex="1">
          <mxGeometry x="113" y="121" width="85" height="26" as="geometry" />
        </mxCell>
        <mxCell id="wQINdJE-mP2ufMY2KP_g-78" value="&lt;font style=&quot;font-size: 17px;&quot;&gt;Покупатель&lt;br&gt;&lt;/font&gt;" style="shape=umlActor;verticalLabelPosition=bottom;verticalAlign=top;html=1;outlineConnect=0;fillColor=#dae8fc;strokeColor=#6c8ebf;" parent="1" vertex="1">
          <mxGeometry x="397" y="-137" width="56" height="95" as="geometry" />
        </mxCell>
        <mxCell id="wQINdJE-mP2ufMY2KP_g-83" value="" style="endArrow=classic;html=1;rounded=0;entryX=0;entryY=0.5;entryDx=0;entryDy=0;exitX=0.5;exitY=0.5;exitDx=0;exitDy=0;exitPerimeter=0;" parent="1" source="wQINdJE-mP2ufMY2KP_g-78" target="wQINdJE-mP2ufMY2KP_g-69" edge="1">
          <mxGeometry width="50" height="50" relative="1" as="geometry">
            <mxPoint x="232" y="-111" as="sourcePoint" />
            <mxPoint x="282" y="-161" as="targetPoint" />
          </mxGeometry>
        </mxCell>
        <mxCell id="wQINdJE-mP2ufMY2KP_g-86" value="" style="endArrow=classic;html=1;rounded=0;exitX=0.5;exitY=0.5;exitDx=0;exitDy=0;exitPerimeter=0;" parent="1" source="wQINdJE-mP2ufMY2KP_g-78" target="wQINdJE-mP2ufMY2KP_g-68" edge="1">
          <mxGeometry width="50" height="50" relative="1" as="geometry">
            <mxPoint x="232" y="-111" as="sourcePoint" />
            <mxPoint x="282" y="-161" as="targetPoint" />
          </mxGeometry>
        </mxCell>
        <mxCell id="wQINdJE-mP2ufMY2KP_g-88" value="" style="endArrow=classic;html=1;rounded=0;dashed=1;" parent="1" source="wQINdJE-mP2ufMY2KP_g-68" target="wQINdJE-mP2ufMY2KP_g-56" edge="1">
          <mxGeometry width="50" height="50" relative="1" as="geometry">
            <mxPoint x="-19.83136378157269" y="-177.03863640634472" as="sourcePoint" />
            <mxPoint x="282" y="-161" as="targetPoint" />
          </mxGeometry>
        </mxCell>
        <mxCell id="wQINdJE-mP2ufMY2KP_g-89" value="" style="endArrow=classic;html=1;rounded=0;dashed=1;" parent="1" source="wQINdJE-mP2ufMY2KP_g-68" target="wQINdJE-mP2ufMY2KP_g-67" edge="1">
          <mxGeometry width="50" height="50" relative="1" as="geometry">
            <mxPoint x="-26.05761249841248" y="-137.606177168675" as="sourcePoint" />
            <mxPoint x="282" y="-161" as="targetPoint" />
          </mxGeometry>
        </mxCell>
        <mxCell id="wQINdJE-mP2ufMY2KP_g-91" value="&amp;lt;&amp;lt;Include&amp;gt;&amp;gt;" style="text;html=1;align=center;verticalAlign=middle;resizable=0;points=[];autosize=1;strokeColor=none;fillColor=none;rotation=0;" parent="1" vertex="1">
          <mxGeometry x="85" y="-108" width="85" height="26" as="geometry" />
        </mxCell>
        <mxCell id="wQINdJE-mP2ufMY2KP_g-95" value="&amp;lt;&amp;lt;Include&amp;gt;&amp;gt;" style="text;html=1;align=center;verticalAlign=middle;resizable=0;points=[];autosize=1;strokeColor=none;fillColor=none;rotation=15;" parent="1" vertex="1">
          <mxGeometry x="129" y="-139" width="85" height="26" as="geometry" />
        </mxCell>
        <mxCell id="MfvoKgx7lpOTFf3PsGmq-3" value="" style="endArrow=classic;html=1;rounded=0;dashed=1;" parent="1" source="wQINdJE-mP2ufMY2KP_g-52" target="wQINdJE-mP2ufMY2KP_g-68" edge="1">
          <mxGeometry width="50" height="50" relative="1" as="geometry">
            <mxPoint x="324" y="10" as="sourcePoint" />
            <mxPoint x="-32" y="364" as="targetPoint" />
          </mxGeometry>
        </mxCell>
        <mxCell id="MfvoKgx7lpOTFf3PsGmq-4" value="&amp;lt;&amp;lt;Include&amp;gt;&amp;gt;" style="text;html=1;align=center;verticalAlign=middle;resizable=0;points=[];autosize=1;strokeColor=none;fillColor=none;rotation=-85;" parent="1" vertex="1">
          <mxGeometry x="228" y="-4" width="85" height="26" as="geometry" />
        </mxCell>
      </root>
    </mxGraphModel>
  </diagram>
</mxfile>
